<?xml version="1.0" encoding="UTF-8"?>
<!DOCTYPE svg PUBLIC "-//W3C//DTD SVG 1.1//EN" "http://www.w3.org/Graphics/SVG/1.1/DTD/svg11.dtd">
<svg xmlns="http://www.w3.org/2000/svg" version="1.1" width="920px" height="984px" style="shape-rendering:geometricPrecision; text-rendering:geometricPrecision; image-rendering:optimizeQuality; fill-rule:evenodd; clip-rule:evenodd" xmlns:xlink="http://www.w3.org/1999/xlink">
<g><path style="opacity:0.997" fill="#f2742c" d="M 333.5,-0.5 C 341.833,-0.5 350.167,-0.5 358.5,-0.5C 377.635,3.69831 387.969,15.6983 389.5,35.5C 388.37,42.4495 388.203,49.4495 389,56.5C 392.274,64.0885 398.107,68.2552 406.5,69C 418.65,69.7029 430.65,71.3695 442.5,74C 451.515,79.5067 460.182,85.5067 468.5,92C 476.142,97.0716 484.142,97.7383 492.5,94C 502.833,85.6667 513.167,77.3333 523.5,69C 535.204,63.8018 547.204,63.1352 559.5,67C 573.958,74.0626 588.292,81.396 602.5,89C 612.015,92.4626 621.682,95.4626 631.5,98C 638.444,99.4548 645.444,99.7881 652.5,99C 663.929,94.8147 675.596,93.8147 687.5,96C 699.764,99.9304 707.597,108.097 711,120.5C 711.657,132.879 711.157,145.212 709.5,157.5C 709.365,166.905 711.865,175.572 717,183.5C 731.62,204.406 742.786,227.073 750.5,251.5C 715.982,272.505 681.315,293.338 646.5,314C 609.825,335.669 570.492,350.002 528.5,357C 478.011,362.304 429.678,354.304 383.5,333C 356.735,320.455 331.068,306.122 306.5,290C 243.528,246.171 178.862,204.838 112.5,166C 98.2793,158.726 84.2793,151.226 70.5,143.5C 90.7857,117.375 111.286,91.3752 132,65.5C 145.864,49.6219 162.031,36.7886 180.5,27C 183.471,26.2057 186.471,25.539 189.5,25C 207.488,25.4547 225.488,25.4547 243.5,25C 256.714,23.8532 269.714,21.5198 282.5,18C 299.199,10.6341 316.199,4.46739 333.5,-0.5 Z"/></g>
<g><path style="opacity:0.998" fill="#619ea5" d="M 70.5,143.5 C 84.2793,151.226 98.2793,158.726 112.5,166C 178.862,204.838 243.528,246.171 306.5,290C 331.068,306.122 356.735,320.455 383.5,333C 429.678,354.304 478.011,362.304 528.5,357C 570.492,350.002 609.825,335.669 646.5,314C 681.315,293.338 715.982,272.505 750.5,251.5C 757.102,271.893 768.102,289.393 783.5,304C 792.905,310.068 801.738,316.902 810,324.5C 816.347,335.205 823.18,345.538 830.5,355.5C 791.235,365.97 754.235,381.636 719.5,402.5C 709.133,402.319 698.8,402.819 688.5,404C 669.771,406.613 651.104,409.613 632.5,413C 617.798,413.127 603.132,413.794 588.5,415C 572.276,418.852 556.276,423.519 540.5,429C 523.567,433.157 506.567,433.49 489.5,430C 476.448,425.983 463.782,420.983 451.5,415C 437.476,410.738 423.143,409.405 408.5,411C 397.752,412.846 387.086,415.013 376.5,417.5C 321.173,381.49 264.173,347.99 205.5,317C 164.382,296.183 121.382,280.516 76.5,270C 52.618,265.729 28.618,264.562 4.5,266.5C 6.75398,260.239 8.92065,253.906 11,247.5C 14.0782,232.776 17.4115,218.109 21,203.5C 25.8085,187.36 34.6419,173.86 47.5,163C 55.3329,156.665 62.9995,150.165 70.5,143.5 Z"/></g>
<g><path style="opacity:1" fill="#eaac47" d="M 376.5,417.5 C 412.498,441.992 451.831,459.158 494.5,469C 538.202,476.996 580.535,472.329 621.5,455C 655.596,439.791 688.263,422.291 719.5,402.5C 754.235,381.636 791.235,365.97 830.5,355.5C 840.004,365.16 851.338,367.993 864.5,364C 875.782,360.795 887.115,357.795 898.5,355C 911.044,352.919 918.044,358.086 919.5,370.5C 919.5,373.5 919.5,376.5 919.5,379.5C 917.866,392.231 913.699,404.231 907,415.5C 897.021,429.967 886.521,443.967 875.5,457.5C 875.44,456.957 875.107,456.624 874.5,456.5C 859.924,462.788 845.591,469.621 831.5,477C 799.996,495.253 768.329,513.253 736.5,531C 702.041,550.042 665.374,562.709 626.5,569C 594.031,572.809 562.031,570.475 530.5,562C 502.634,553.933 475.967,542.933 450.5,529C 412.33,506.418 374.664,483.085 337.5,459C 285.136,426.647 230.803,397.647 174.5,372C 137.211,355.57 98.5446,343.57 58.5,336C 41.2242,333.899 23.8909,332.732 6.5,332.5C 3.39985,322.664 1.06652,312.664 -0.5,302.5C -0.5,296.833 -0.5,291.167 -0.5,285.5C 0.531452,279.014 2.19812,272.68 4.5,266.5C 28.618,264.562 52.618,265.729 76.5,270C 121.382,280.516 164.382,296.183 205.5,317C 264.173,347.99 321.173,381.49 376.5,417.5 Z"/></g>
<g><path style="opacity:1" fill="#677735" d="M 6.5,332.5 C 23.8909,332.732 41.2242,333.899 58.5,336C 98.5446,343.57 137.211,355.57 174.5,372C 230.803,397.647 285.136,426.647 337.5,459C 374.664,483.085 412.33,506.418 450.5,529C 475.967,542.933 502.634,553.933 530.5,562C 562.031,570.475 594.031,572.809 626.5,569C 665.374,562.709 702.041,550.042 736.5,531C 768.329,513.253 799.996,495.253 831.5,477C 845.591,469.621 859.924,462.788 874.5,456.5C 875.107,456.624 875.44,456.957 875.5,457.5C 865.618,474.229 853.618,489.396 839.5,503C 823.66,513.419 807.993,524.086 792.5,535C 769.01,556.074 760.51,582.241 767,613.5C 768.387,624.263 770.22,634.93 772.5,645.5C 753.347,655.911 734.013,666.078 714.5,676C 677.335,693.916 638.169,703.749 597,705.5C 556.358,703.964 517.525,694.798 480.5,678C 460.837,668.839 441.837,658.672 423.5,647.5C 426.049,628.029 421.549,610.363 410,594.5C 397.569,580.072 385.903,565.072 375,549.5C 372.723,544.613 370.723,539.613 369,534.5C 366.814,522.53 364.814,510.53 363,498.5C 360.419,480.925 350.586,470.092 333.5,466C 323.833,465.667 314.167,465.333 304.5,465C 298.145,464.578 292.145,462.911 286.5,460C 276.835,451.666 265.835,445.666 253.5,442C 243.767,440.604 234.433,441.937 225.5,446C 210.145,455.504 193.478,460.67 175.5,461.5C 153.533,458.958 131.533,456.458 109.5,454C 94.8838,453.107 82.7171,447.274 73,436.5C 67.5856,426.669 61.9189,417.002 56,407.5C 43.6667,393.833 31.3333,380.167 19,366.5C 12.7604,355.95 8.59377,344.617 6.5,332.5 Z"/></g>
<g><path style="opacity:1" fill="#c24626" d="M 719.5,402.5 C 688.263,422.291 655.596,439.791 621.5,455C 580.535,472.329 538.202,476.996 494.5,469C 451.831,459.158 412.498,441.992 376.5,417.5C 387.086,415.013 397.752,412.846 408.5,411C 423.143,409.405 437.476,410.738 451.5,415C 463.782,420.983 476.448,425.983 489.5,430C 506.567,433.49 523.567,433.157 540.5,429C 556.276,423.519 572.276,418.852 588.5,415C 603.132,413.794 617.798,413.127 632.5,413C 651.104,409.613 669.771,406.613 688.5,404C 698.8,402.819 709.133,402.319 719.5,402.5 Z"/></g>
<g><path style="opacity:1" fill="#292458" d="M 772.5,645.5 C 776.185,661.46 778.518,677.627 779.5,694C 779.16,717.678 770.16,737.344 752.5,753C 743.703,760.128 735.203,767.628 727,775.5C 722.723,783.443 720.556,791.943 720.5,801C 721.919,811.859 721.753,822.692 720,833.5C 718.084,841.171 714.25,847.671 708.5,853C 694.711,861.789 683.211,872.956 674,886.5C 667.045,902.04 659.712,917.373 652,932.5C 637.981,951.837 619.481,965.003 596.5,972C 576.159,974.701 556.159,978.535 536.5,983.5C 529.5,983.5 522.5,983.5 515.5,983.5C 503.763,979.605 495.263,971.938 490,960.5C 482.775,934.702 469.442,912.702 450,894.5C 444.542,887.806 441.209,880.139 440,871.5C 442.797,845.161 437.797,820.494 425,797.5C 416.365,784.566 409.032,770.899 403,756.5C 398.196,738.235 399.196,720.235 406,702.5C 413.149,684.554 418.982,666.22 423.5,647.5C 441.837,658.672 460.837,668.839 480.5,678C 517.525,694.798 556.358,703.964 597,705.5C 638.169,703.749 677.335,693.916 714.5,676C 734.013,666.078 753.347,655.911 772.5,645.5 Z"/></g>
<g><path style="opacity:0.98" fill="#581d0a" d="M 885.5,682.5 C 894.615,680.79 901.115,684.124 905,692.5C 908.908,701.413 910.408,710.746 909.5,720.5C 909.768,729.61 908.935,738.61 907,747.5C 896.965,764.558 887.299,781.892 878,799.5C 874.893,813.137 871.893,826.804 869,840.5C 866.455,850.093 861.955,858.593 855.5,866C 841.99,874.635 830.157,872.801 820,860.5C 818.725,858.283 817.725,855.949 817,853.5C 816.639,840.111 815.973,826.778 815,813.5C 817.738,805.417 821.405,797.75 826,790.5C 829.283,784.732 829.949,778.732 828,772.5C 818.364,759.946 817.031,746.612 824,732.5C 826.205,729.96 828.705,727.793 831.5,726C 839.022,724.031 846.689,723.031 854.5,723C 859.712,721.983 863.545,719.149 866,714.5C 868.361,707.055 871.028,699.721 874,692.5C 877.357,688.579 881.19,685.245 885.5,682.5 Z"/></g>
</svg>
