<svg width="57" height="49" viewBox="0 0 57 49" fill="none" xmlns="http://www.w3.org/2000/svg">
<path d="M29.8049 12.2923L29.8974 12.32L29.9023 12.3144C30.2625 12.3711 30.6159 12.1529 30.7217 11.7954C31.6579 8.64554 34.6076 6.44509 37.8935 6.44509C38.3007 6.44509 38.6306 6.11449 38.6306 5.7073C38.6306 5.30008 38.3007 4.96951 37.8935 4.96951C33.8252 4.96951 30.4067 7.68171 29.3091 11.3749C29.1928 11.7654 29.4149 12.1759 29.8049 12.2923Z" fill="#ed7626" stroke="ed7626" stroke-width="0.3"/>
<path d="M46.1113 34.5089H42.5892C42.265 34.5089 42.0021 34.2457 42.0021 33.9212C42.0021 33.5966 42.265 33.3334 42.5892 33.3334H46.1113C50.9664 33.3334 54.9167 29.378 54.9167 24.5166C54.9167 19.6553 50.9664 15.6999 46.1113 15.6999H46.0266C45.8563 15.6999 45.6945 15.626 45.583 15.4971C45.4714 15.3682 45.4211 15.1973 45.4454 15.0285C45.4978 14.6624 45.5243 14.2946 45.5243 13.9365C45.5243 9.7234 42.1006 6.2953 37.8928 6.2953C36.2559 6.2953 34.6948 6.80751 33.3781 7.77692C33.0888 7.98979 32.6779 7.89532 32.5106 7.57665C28.7817 0.467023 19.0423 -0.487729 13.9929 5.69703C11.8658 8.30258 11.03 11.692 11.6997 14.9954C11.7735 15.3602 11.4947 15.7003 11.1244 15.7003H10.8892C6.0341 15.7003 2.08378 19.6557 2.08378 24.5171C2.08378 29.3784 6.0341 33.3338 10.8892 33.3338H14.4113C14.7355 33.3338 14.9984 33.5971 14.9984 33.9216C14.9984 34.2461 14.7355 34.5094 14.4113 34.5094H10.8892C5.38661 34.5094 0.909668 30.0267 0.909668 24.517C0.909668 19.1619 5.13875 14.777 10.4284 14.5352C9.93151 11.108 10.8817 7.65095 13.0838 4.95307C18.4899 -1.66913 28.8503 -0.926873 33.2299 6.45737C34.6271 5.58031 36.2258 5.1202 37.8926 5.1202C42.9906 5.1202 47.0302 9.46479 46.6767 14.5407C51.9176 14.835 56.0906 19.1967 56.0906 24.5166C56.0906 30.0267 51.6136 34.509 46.111 34.509L46.1113 34.5089Z" fill="#ed7626"/>
<path d="M13.5956 33.5893C13.5956 41.7747 20.2462 48.4341 28.4215 48.4341C36.5969 48.4341 43.2474 41.7746 43.2474 33.5893C43.2474 25.4039 36.5969 18.7445 28.4215 18.7445C20.2461 18.7445 13.5956 25.404 13.5956 33.5893ZM15.0699 33.5893C15.0699 26.2177 21.0598 20.2204 28.4215 20.2204C35.7831 20.2204 41.7731 26.2176 41.7731 33.5893C41.7731 40.9608 35.7831 46.9582 28.4215 46.9582C21.0599 46.9582 15.0699 40.961 15.0699 33.5893Z" fill="#ed7626" stroke="ed7626" stroke-width="0.3"/>
<path d="M28.1103 39.5048C28.1103 39.8251 28.3697 40.0852 28.69 40.0852C29.0103 40.0852 29.2698 39.8255 29.2698 39.5048V28.3163C29.2698 27.996 29.0103 27.736 28.69 27.736C28.3697 27.736 28.1103 27.9961 28.1103 28.3163V39.5048Z" fill="#ed7626" stroke="#ed7626" stroke-width="0.3"/>
<path d="M28.6898 29.1382L31.7179 32.1702C31.8309 32.2834 31.9798 32.3402 32.1279 32.3402L28.6898 29.1382ZM28.6898 29.1382L25.6618 32.1701L28.6898 29.1382ZM32.4318 32.0642L32.5381 32.17C32.4249 32.2839 32.2758 32.3402 32.1279 32.3402L32.4318 32.0642ZM32.4318 32.0642C32.348 32.1484 32.2378 32.1902 32.1279 32.1902L32.4318 32.0642ZM24.8416 32.1702C25.068 32.3969 25.4354 32.3971 25.6617 32.1702L28.2797 27.9071L28.2797 27.9071C28.2797 27.9071 28.2796 27.9071 28.2796 27.9072L24.8416 31.3496C24.6152 31.5763 24.6152 31.9435 24.8416 32.1702Z" fill="#ed7626" stroke="#ed7626" stroke-width="0.3"/>
</svg>
