<svg id="Layer_1" data-name="Layer 1" xmlns="http://www.w3.org/2000/svg" viewBox="0 0 504 432"><defs><style>.cls-1,.cls-2{fill:#064936;}.cls-2,.cls-3{stroke:#fff;}.cls-2,.cls-3,.cls-4{stroke-miterlimit:10;}.cls-3,.cls-5{fill:#03c03c;}.cls-4{fill:#fff;stroke:#064936;stroke-width:2px;}.cls-6{fill:#fcfcfc;}</style></defs><title>Two colors(G)</title><path class="cls-1" d="M309.17,244.53a12.06,12.06,0,0,1-2.84,6.15,21.58,21.58,0,0,1-3.24,2.52,47.65,47.65,0,0,1-6.85,4.39c-3.95,1.89-5.05,4.82-4.19,8.88.28,1.26.26,2.58.45,3.87.64,4.23-.78,7.51-4.73,9.24s-5.79,4.42-5.65,8.71c.13,3.76-1.89,6.15-5.06,8.06-4.42,2.66-6.76,7.42-10.19,11.1s-7.33,5.78-12.58,5.23a26,26,0,0,0-12.16,1.67c-5.94,2.25-13.31-4.08-12.18-10.39a8.7,8.7,0,0,0-1-5.88c-2.83-5.67-5.41-11.47-8.23-17.15a17.42,17.42,0,0,1-1.51-7.56,22.29,22.29,0,0,0-4.55-13c-6.3-8.51-6.66-17.33-1.57-26.52.81-1.46,1.25-3.13,2-4.62a5.16,5.16,0,0,0-.26-5.83,7.73,7.73,0,0,1-.75-8.43c1-1.95.12-3.46-1-5-3.7-4.84-7.26-9.8-11.08-14.53-2.4-3-3.28-6-2.3-9.74.82-3.12,1.28-6.35,1.81-9.54.75-4.55-2-7.68-6.58-7.11s-8.21-.05-10.28-4.76c-.79-1.8-2.53-2-4.33-1.58-2.63.67-5.28,1.29-7.88,2.05-6.24,1.83-12.48,3.46-19.06,2-2.26-.49-4.29.23-6.33,1.23-4.89,2.4-6.75,2-10.8-1.7s-8.31-7.82-12.54-11.65a19,19,0,0,1-4.61-6.16c-1.74-3.76-3.71-7.24-7-10.1-3.86-3.35-2.22-8.18-1.9-12.49a13.1,13.1,0,0,1,1.34-4.44c2.94-6.26,3-12.72,1.67-19.34a9.17,9.17,0,0,1,1.68-7.33c4.36-6.48,9.63-12.2,14.66-18.13,2.07-2.43,5.07-3.57,7.79-5,2.44-1.29,3.81-3,3.63-5.81a5.19,5.19,0,0,1,.53-3,52.21,52.21,0,0,1,17.88-16.26,4.94,4.94,0,0,1,5.51.75c2.34,1.86,4.69,1.82,7.28,1,10.63-3.58,21.62-3.63,32.64-3.32,4.68.13,7.07,2.34,7.69,7,.36,2.77,0,5.77,2.37,7.94.46,1.51-.21,2.37-1.53,2.87l-.11,0h-.13c-3.53-.25-4.2-3.06-4.5-5.71-1-9.32-2.69-7.51-9.25-7.88-8.4-.47-16.51.91-24.54,3.12-4,1.08-7.86,1.69-11.66-.62-1.67-1-3.26-.36-4.7.7a76.09,76.09,0,0,0-10.94,9.9A7.45,7.45,0,0,0,145.48,67c-.27,4.42-2.86,7.13-6.44,9.07-9,4.9-14.17,13.46-20.08,21.3a6.3,6.3,0,0,0-.94,5.24c1.75,7.69-.09,14.9-2.49,22.12-1.7,5.11-1.58,10,2.94,13.86a4.82,4.82,0,0,1,1.41,1.85c3.4,9.22,11.51,14.47,17.85,21.21,2.61,2.79,5.44,3.7,9,1.65a9.21,9.21,0,0,1,6.4-1.1c5.89,1.13,11.61.23,17.24-1.54q4.27-1.33,8.65-2.27c3.93-.83,7.26.24,9.57,3.56a5.12,5.12,0,0,0,5.61,2.45c6.88-1.22,14.27,6.08,11.7,13.3-3,8.32-1.74,15.6,4.93,21.86,2.33,2.18,3.9,5.17,5.9,7.72a9.18,9.18,0,0,1,1.81,8.77,7.18,7.18,0,0,0,.78,6,9.1,9.1,0,0,1,.22,8.6c-1.45,3.33-3.06,6.61-4.21,10-1.58,4.73-1.74,9.42,1.22,13.79,4.19,6.21,7.09,12.73,7.55,20.49.36,6,4,11.19,6.63,16.52,2.09,4.2,4.23,8.17,4.12,13.17-.1,4.23,3.25,6.31,7.15,4.85,4.05-1.51,8.19-1.17,12.31-1.1a11.31,11.31,0,0,0,8.32-3.42c4.76-4.38,7.94-10.29,13.48-13.92,1.25-.82,1.49-2.41,1.48-3.87a11,11,0,0,1,6.24-10.46c3.27-1.71,4.64-4.34,3.82-7.66-2.08-8.49,1.74-13.6,9-17.12a30.71,30.71,0,0,0,4.53-3c2-1.46,3.72-2.45,4.63-4.52a7.27,7.27,0,0,0,.42-1.31.63.63,0,0,0-.08.34.76.76,0,0,0,.46.63l-.21,0,.9.18Z"/><path class="cls-2" d="M350.53,147.22c-2,4.4-3.63,7.73-3.68,7.82-1.21,2.06-3.08,5.24-5.83,10-3,.87-4.94.44-7.89,1.31,1.73-2.31,8.21-11,11.65-17.65,1-1.93,2.43-5,1.12-6.5-2-2.34-4.59-.36-6.84.25-3,.82-5.89,2-9,2.54-3.29.57-6.36,0-8.29-2.92-2.65-4-6.36-6.8-10.15-9.51a24.88,24.88,0,0,1-8.2-10.59c-3.81-8.51-7.7-16.93-13.55-24.4-4.58-5.86-7.6-12.69-6.83-20.56a24.81,24.81,0,0,0,0-3.11c-.13-4.75-2-6.85-6.55-5.49-8.86,2.64-17.13.77-25.5-1.71-4.33-1.28-8.16-1.51-11.42,2.82-2.32,3.08-6.54,3.41-9.92,1.25-4.31-2.74-8.7-5.08-13.8-5.94a3.19,3.19,0,0,1-2.76-1.86,3.64,3.64,0,0,1-.11-.39c1.09-.49,1.37-1.59,1.88-2.52,5.83.81,11.34,2.4,16.06,6.19,2.61,2.09,4.89,1.86,6.58-1.44s4.6-4.28,8.18-3.83a82.59,82.59,0,0,1,14.37,3.24,20.92,20.92,0,0,0,12.16.21,21.16,21.16,0,0,1,4.56-.9c6.57-.32,11.36,1.91,10.62,9.26-1,9.93,2.57,18.14,8.75,25.67,5.39,6.57,8.2,14.65,11.74,22.27a20.67,20.67,0,0,0,6.08,7.8c4.11,3.28,8.82,6,11.45,10.88.91,1.7,2.75,1.57,4.52,1,3.81-1.23,7.67-2.31,11.49-3.53,3.09-1,6-.78,8.2,1.73S352,144,350.53,147.22Z"/><path class="cls-3" d="M347.26,145.75c-1.39,3.16-2.79,6.31-4.35,9.39a24.17,24.17,0,0,1-7.86,10.29,57.09,57.09,0,0,0-8.65,4.65,57.46,57.46,0,0,0-10.68,9.11,54.55,54.55,0,0,0-5.73,7.45,57.16,57.16,0,0,0-3.45,56.61c.16.32.32.64.49,1l.1.2a19.84,19.84,0,0,1-5.93,5.77c-2.94,1.9-5.85,3.83-8.82,5.67-3.21,2-4.69,4.71-4,8.51.14.76.13,1.55.28,2.31,1.05,5.36.16,9.61-5.7,11.77-2.77,1-4.07,3.68-4,6.6.07,4.27-1.61,6.88-5.25,9.46-3.91,2.76-6.81,7-9.9,10.85a9.87,9.87,0,0,1-9.11,3.87c-4.36-.28-8.72-.32-13,1.52-4,1.73-8.78-1.93-8.09-6.24.56-3.52-.5-6.27-2-9.2-4.54-8.72-9.16-17.36-9.55-27.63-.19-5.06-4.21-8.78-6.62-13-2.8-4.92-2.71-9.82-.92-14.87a52.37,52.37,0,0,1,3.11-7.12c2.14-4.06,3-8-.15-12a3.69,3.69,0,0,1-.1-4.06c1.51-3.16.82-6-1.29-8.67-3.76-4.8-7.29-9.77-11.11-14.51a7.76,7.76,0,0,1-1.7-7.18c.75-3.28,1.25-6.62,1.81-9.94,1.09-6.37-3.81-11.87-10.1-10.87-3.56.57-5.77,0-7.55-3.41-1.51-2.93-4.59-3.62-7.79-2.84s-6.3,1.5-9.37,2.5a34.27,34.27,0,0,1-17.58,1.43c-2.75-.53-5.08.62-7.35,1.9s-4.28,1-6.26-.94c-4.45-4.35-9-8.57-13.65-12.74a17.09,17.09,0,0,1-3.75-5.83c-1.61-3.43-3.44-6.59-6.46-9.07s-1.72-6.24-1.45-9.48a18.45,18.45,0,0,1,1.56-5.19,29,29,0,0,0,1.7-18.24c-.78-3.28.24-5.93,2.21-8.63,4-5.45,8.53-10.44,12.88-15.59,2.12-2.52,5.39-3.51,8.16-5.15,2.53-1.51,4.22-3.5,4.12-6.54s1.34-5.05,3.35-7.08c3.29-3.34,7-6.22,10.51-9.24,1.81-1.55,3.63-2,5.57-.45C166.41,53,169.35,53,172.27,52c10.26-3.26,20.77-3.92,31.45-3.58,3.37.11,4.93,1.27,5.36,4.63s-.23,7.51,3.94,9.45a2.89,2.89,0,0,0,.35.35,5.1,5.1,0,0,0,2.77,1A28.72,28.72,0,0,1,228.9,69.1c5,3.51,8.3,2.7,11.63-2.44a4.35,4.35,0,0,1,4.57-2.11,69.77,69.77,0,0,1,14,3.1c4.45,1.31,8.81,1.74,13.33.33a21.37,21.37,0,0,1,5.73-.92c4.47-.12,6.18,1.31,5.76,5.69-1.05,11.08,3.11,20.06,9.86,28.49,5,6.18,7.68,13.77,10.89,21a21.92,21.92,0,0,0,6.71,8.79c4.16,3.22,8.62,6.08,11.5,10.84,1.72,2.83,5,2.95,8.06,2,3.83-1.19,7.67-2.34,11.48-3.57,1.72-.55,3.31-.71,4.62.8S348,144.09,347.26,145.75Z"/><path class="cls-4" d="M349.23,195a46.49,46.49,0,0,1-8.46,28.72c-.73,1-.66,1.6.3,2.28a8.68,8.68,0,0,1,1.38,1.26c1.59,1.75,3.25,2.93,5.94,2.54,2.15-.32,4.18.8,5.82,2.31q15.33,14.13,30.64,28.3A9.45,9.45,0,0,1,372,274.21q-15.3-14.06-30.52-28.18a9,9,0,0,1-3-7.44,2.32,2.32,0,0,0-.92-2.17c-1.24-1.07-2.46-2.17-3.6-3.35-.68-.69-1.1-.58-1.79,0A46.94,46.94,0,0,1,303.26,244c-22.4.85-43-15.32-47.52-37.31a47.25,47.25,0,0,1,33.89-55.6c26.07-7.29,53.68,9.79,58.7,36.33A45.75,45.75,0,0,1,349.23,195Z"/><path class="cls-5" d="M277.88,226a40,40,0,0,1-11.32-16,37.84,37.84,0,1,1,41.17,24.08,37.36,37.36,0,0,1-27.63-6.5c-.37-.26-.75-.49-1.13-.74C278.29,226.93,278.15,226.36,277.88,226Z"/><path class="cls-6" d="M333.39,194.28c0,.05,0,.33,0,.62.11,2.59-1.27,4.37-3.51,4.5s-3.86-1.52-4-4.08a23.86,23.86,0,0,0-24.4-22.55c-2.57,0-4.33-1.45-4.4-3.67a3.9,3.9,0,0,1,4-3.91C317.52,164.49,332.25,177.66,333.39,194.28Z"/><path class="cls-5" d="M91.68,344.23l-2,11.75H82.5l5.23-31.33h11.2a20.54,20.54,0,0,1,5.92.69,7.54,7.54,0,0,1,3.85,2.9,9,9,0,0,1,1.61,5.43,12.14,12.14,0,0,1-1,4.74,8.5,8.5,0,0,1-2.85,3.68,10.49,10.49,0,0,1-3.41,1.74,21,21,0,0,1-4.73.4Zm2.33-14-1.42,8.51H98a5.45,5.45,0,0,0,4.06-1.32,4.46,4.46,0,0,0,1.29-3.24,4.17,4.17,0,0,0-1-2.71c-.69-.83-2.21-1.24-4.55-1.24Z"/><path class="cls-5" d="M130.21,338.79l-5.21,1q-.65-3.26-4.59-3.26a3.28,3.28,0,0,0-2.15.69,2,2,0,0,0-.85,1.57,1.52,1.52,0,0,0,.74,1.43,10.73,10.73,0,0,0,3.11.82,13.39,13.39,0,0,1,6.17,2.25,5.83,5.83,0,0,1,2,4.88,7.64,7.64,0,0,1-2.71,5.89,10.76,10.76,0,0,1-7.48,2.44,13.79,13.79,0,0,1-7-1.72,7.07,7.07,0,0,1-3.54-5.33l5.76-.66q.46,3.3,5,3.3a4.68,4.68,0,0,0,2.84-.72,2.14,2.14,0,0,0,.95-1.71,1.57,1.57,0,0,0-.73-1.45,10.22,10.22,0,0,0-3.15-.88c-3.33-.56-5.55-1.46-6.64-2.7a6.43,6.43,0,0,1-1.64-4.43,7.6,7.6,0,0,1,2.44-5.77,9.58,9.58,0,0,1,6.85-2.31Q128.66,332.13,130.21,338.79Z"/><path class="cls-5" d="M154.33,332.64l-10.45,22a49,49,0,0,1-3.19,6,7.8,7.8,0,0,1-2.87,2.53,10.89,10.89,0,0,1-5,.93,18.45,18.45,0,0,1-2.43-.12l.36-5.23a25.69,25.69,0,0,0,2.87.25,5,5,0,0,0,3-.74,5.12,5.12,0,0,0,1.62-2.59l-5.37-23.06h7l2.83,14.18L149,332.64Z"/><path class="cls-5" d="M174.6,347.74q-3,8.72-10.77,8.72a9.41,9.41,0,0,1-7.51-3,11.31,11.31,0,0,1-2.65-7.72,14.6,14.6,0,0,1,3.3-9.38,10.74,10.74,0,0,1,8.81-4.12c3.34,0,5.78.91,7.34,2.72a8.83,8.83,0,0,1,2.33,5.82v.51l-6.06.36a4.41,4.41,0,0,0-1.06-3.31,3.39,3.39,0,0,0-2.41-1c-1.51,0-2.72.87-3.61,2.63A15,15,0,0,0,161,346.8q0,4.29,3.56,4.29,3.15,0,4.38-4.11Z"/><path class="cls-5" d="M197,356H190.2l2.37-14.16a13.62,13.62,0,0,0,.2-2,2.25,2.25,0,0,0-.69-1.68,2.4,2.4,0,0,0-1.79-.68,3.61,3.61,0,0,0-2.37.83,4.49,4.49,0,0,0-1.46,2.12,32.73,32.73,0,0,0-1,4.42L183.64,356h-6.75l5.23-31.33h6.75L187,336.06a7.39,7.39,0,0,1,6.54-3.83,6.25,6.25,0,0,1,4.44,1.63,5.56,5.56,0,0,1,1.75,4.29,43.45,43.45,0,0,1-.68,5.53Z"/><path class="cls-5" d="M230.83,339.18l-2.85,17H225l-.83-4.22a10.31,10.31,0,0,1-8.63,4.4,11.16,11.16,0,0,1-8.32-3.5q-3.4-3.5-3.4-9.85a21.16,21.16,0,0,1,4.33-13.56A13.61,13.61,0,0,1,219.35,324a11.8,11.8,0,0,1,8.06,2.71,12.38,12.38,0,0,1,3.94,7.59l-6.75,1.11c-.55-3.75-2.31-5.63-5.3-5.63a5.74,5.74,0,0,0-4.57,2.15,13.62,13.62,0,0,0-2.65,5.77,28.26,28.26,0,0,0-.83,6,8,8,0,0,0,1.36,4.77,5,5,0,0,0,4.44,1.93c3,0,5.07-1.85,6.11-5.6h-6.45l.94-5.67Z"/><path class="cls-5" d="M255.88,345.47H240.8a15.79,15.79,0,0,0-.13,1.72,4.64,4.64,0,0,0,1.14,3.41,3.86,3.86,0,0,0,2.8,1.13q3.28,0,4.66-3.71l5.74,1a11.28,11.28,0,0,1-4,5.47,11,11,0,0,1-6.82,2.1,9.9,9.9,0,0,1-7.48-3,10.76,10.76,0,0,1-2.87-7.77,14.63,14.63,0,0,1,3.39-9.49,11,11,0,0,1,9-4.18,9.11,9.11,0,0,1,7.29,3,11.12,11.12,0,0,1,2.6,7.51A24.64,24.64,0,0,1,255.88,345.47Zm-14.59-3.86h8.42a9.1,9.1,0,0,0,.11-1.39,3.68,3.68,0,0,0-1-2.81,3.51,3.51,0,0,0-2.51-1Q242.41,336.43,241.29,341.61Z"/><path class="cls-5" d="M268.47,332.64l-.74,4.43c1.71-3.23,4-4.84,7-4.84a6,6,0,0,1,4.49,1.77,6.23,6.23,0,0,1,1.73,4.51,33.3,33.3,0,0,1-.52,4.34L278.23,356h-6.72l2.27-13.63a22.32,22.32,0,0,0,.35-2.57,2.16,2.16,0,0,0-2.41-2.46,3.64,3.64,0,0,0-2.32.84,4.83,4.83,0,0,0-1.54,2.16,25.17,25.17,0,0,0-.94,4.12L265,356h-6.74l3.9-23.34Z"/><path class="cls-1" d="M321.91,356h-7.46l-1-6.89H302.93l-3,6.89h-6.78l14.92-31.33h8.57Zm-16.59-12.35h7.32l-1.83-12.53Z"/><path class="cls-1" d="M339.23,337.94h-4.54l-3,18H325l3-18h-2.74l.65-5.3h3q.66-5.24,3.11-7.32t6.94-2.09a19,19,0,0,1,2.87.23l-.39,5.39a15.34,15.34,0,0,0-2.06-.16,4.25,4.25,0,0,0-2.53.71c-.66.48-1.07,1.56-1.24,3.24h4.55Z"/><path class="cls-1" d="M355.32,339.07a7.35,7.35,0,0,0-3.1.56,5.67,5.67,0,0,0-2.24,2,10.21,10.21,0,0,0-1.49,3.32q-.47,1.83-1.11,5.94l-.84,5.05h-7l3.9-23.34h6.51l-.87,5.37a16,16,0,0,1,2.06-3.64,5.21,5.21,0,0,1,2.12-1.65,8.14,8.14,0,0,1,2.8-.4Z"/><path class="cls-1" d="M367,332.64,363.06,356h-7l3.9-23.34Zm1.4-8.4-1.11,6.63h-7l1.1-6.63Z"/><path class="cls-1" d="M390.2,347.74q-3,8.72-10.76,8.72a9.44,9.44,0,0,1-7.52-3,11.36,11.36,0,0,1-2.65-7.72,14.61,14.61,0,0,1,3.31-9.38,10.74,10.74,0,0,1,8.81-4.12q5,0,7.33,2.72a8.78,8.78,0,0,1,2.33,5.82v.51l-6.06.36a4.41,4.41,0,0,0-1.05-3.31,3.41,3.41,0,0,0-2.41-1c-1.52,0-2.72.87-3.62,2.63a15.19,15.19,0,0,0-1.34,6.87q0,4.29,3.56,4.29c2.09,0,3.56-1.37,4.38-4.11Z"/><path class="cls-1" d="M406.43,356c0-.69-.05-1.17-.05-1.45a13.51,13.51,0,0,1,.14-1.49q.09-.62.12-1.08a7.67,7.67,0,0,1-7.51,4.59,7.13,7.13,0,0,1-5-1.81,5.93,5.93,0,0,1-2-4.53,7,7,0,0,1,3.42-6.11q3.42-2.31,12.39-2.72a5.85,5.85,0,0,0,.42-2.09,2.62,2.62,0,0,0-.83-2,3.23,3.23,0,0,0-2.23-.74,4.59,4.59,0,0,0-4.68,3.53l-6.12-.69q2.44-7.12,11.31-7.13,4.47,0,6.8,1.85a5.94,5.94,0,0,1,2.33,4.89,42.06,42.06,0,0,1-.64,5l-1,6a29.36,29.36,0,0,0-.48,4.43,12,12,0,0,0,.11,1.54Zm1-11.31q-8.26.29-8.26,4.75a3,3,0,0,0,.72,2,2.48,2.48,0,0,0,1.94.81,4.44,4.44,0,0,0,3.51-1.9A11.62,11.62,0,0,0,407.46,344.67Z"/></svg>