<svg width="182" height="128" viewBox="0 0 182 128" fill="none" xmlns="http://www.w3.org/2000/svg">
<path d="M43.3333 43.3042C43.4369 43.42 43.4822 43.564 43.4596 43.7063C43.4596 43.866 43.438 44.0286 43.4344 44.1912C43.4344 44.7826 43.6402 44.9954 44.3444 45.0989C44.6116 45.1374 44.886 45.1374 45.1569 45.1551C45.7542 45.167 46.3287 45.3453 46.7855 45.6607C47.0344 45.8273 47.3016 45.9748 47.5835 46.1013C47.7428 46.182 47.9273 46.2231 48.1145 46.2194C48.3018 46.2158 48.4837 46.1675 48.638 46.0806C48.8627 45.9567 49.0785 45.8225 49.2844 45.6784C49.5155 45.5247 49.7213 45.3473 49.9633 45.2083C50.2012 45.0621 50.4778 44.9638 50.7708 44.9211C51.0637 44.8785 51.3647 44.8928 51.6496 44.9629C52.1468 45.0877 52.6206 45.2678 53.058 45.4981C53.8272 45.8646 54.6619 46.13 55.5316 46.2846C55.9165 46.3658 56.3203 46.3658 56.7052 46.2846C56.9183 46.2343 57.1349 46.1988 57.3552 46.1604C57.7719 46.0935 58.2041 46.149 58.5758 46.3171C58.7998 46.4052 58.9922 46.5391 59.1346 46.7058C59.2769 46.8726 59.3643 47.0666 59.3883 47.2692C59.4318 47.5914 59.4172 47.9172 59.3449 48.236C59.2238 48.779 59.3635 49.3394 59.7349 49.8001C59.9046 50.0248 60.0708 50.2495 60.2369 50.4742C60.7088 51.1194 61.0663 51.8163 61.2985 52.5439C61.2899 52.594 61.268 52.642 61.2343 52.6844C61.2006 52.7268 61.156 52.7626 61.1035 52.7893C58.3194 54.1317 55.6869 55.6987 52.556 56.5207C49.8948 57.2118 47.0273 57.1514 44.413 56.3492C42.0333 55.6692 39.9244 54.5752 37.8697 53.4102C35.9738 52.3399 34.0455 51.3199 32.0919 50.3294C31.8247 50.1933 31.5069 50.0958 31.4058 49.809C32.1523 48.9339 33.0627 48.1606 34.1033 47.5175C36.5211 45.869 39.3887 44.7219 42.463 44.1735C43.1383 44.0375 43.0696 43.5999 43.3333 43.3042Z" fill="#EE7527"/>
<path d="M65.2492 56.6804C65.8595 57.1505 66.5636 57.1623 67.3147 56.976C67.5964 56.908 67.8817 56.8459 68.167 56.7809C68.2861 56.7543 68.4017 56.7188 68.5281 56.7011C69.3478 56.5828 69.7595 56.8666 69.7125 57.5496C69.6761 57.9727 69.5412 58.3862 69.3153 58.7678C69.0605 59.1819 68.7505 59.5716 68.3908 59.9298C68.0767 60.2639 67.7553 60.5921 67.4375 60.9232C64.5847 62.0291 61.9775 63.5133 59.0995 64.5866C55.4197 65.9615 51.7725 65.8521 48.1361 64.5245C45.8778 63.6547 43.7235 62.6144 41.7011 61.417C41.4423 61.2444 41.1508 61.1075 40.8381 61.0119C38.5491 59.8527 36.1811 58.8014 33.7458 57.863C31.5792 57.0411 29.3475 56.3137 26.9461 56.0476C26.1588 56.0129 25.3748 55.9378 24.5989 55.8229C24.2149 55.0444 24.1268 54.1891 24.3461 53.3688C24.3915 53.2562 24.447 53.1465 24.5122 53.0406C24.7827 52.8951 25.1097 52.8371 25.4294 52.878C27.9356 52.8278 30.2358 53.4871 32.5 54.2618C35.9306 55.4445 39.0542 57.0647 42.1922 58.6732C42.4868 58.8218 42.7906 58.958 43.1022 59.0812C45.63 60.5596 48.4358 61.4288 51.6028 61.2544C53.3017 61.1118 54.9465 60.6841 56.4344 59.9978C57.5057 59.5464 58.5566 59.0605 59.5869 58.5401C61.0377 57.8273 62.5791 57.2463 64.1839 56.8075C64.5149 56.6774 64.8866 56.6331 65.2492 56.6804Z" fill="#ECB03B"/>
<path d="M62.4182 68.4541C62.6465 69.1174 62.7679 69.8023 62.7793 70.4913C62.7952 71.2091 62.4642 71.903 61.8585 72.422C61.5061 72.7347 61.1232 73.0235 60.7137 73.2854C60.451 73.4384 60.2397 73.6434 60.0996 73.8811C59.9594 74.1189 59.8949 74.3818 59.9121 74.6455C59.9121 74.9411 59.9121 75.2132 59.9121 75.497C59.934 75.7832 59.8663 76.0693 59.7152 76.328C59.5642 76.5868 59.3348 76.8096 59.049 76.9754C59.0121 77.0016 58.9735 77.0263 58.9334 77.0493C58.0498 77.5471 57.3871 78.266 57.0448 79.0983C57.0196 79.1545 56.9871 79.2106 56.9618 79.2668C56.2107 80.7866 54.7698 81.5642 52.8523 81.8096C52.2926 81.8806 51.7329 81.9574 51.1768 82.055C50.8857 82.0991 50.5913 82.1268 50.2957 82.1378C49.935 82.171 49.5708 82.1085 49.2568 81.9595C48.9427 81.8104 48.6955 81.5827 48.5515 81.3099C48.424 81.1141 48.3153 80.9105 48.2265 80.7008C47.9489 79.9636 47.4526 79.2942 46.7821 78.7524C46.508 78.5464 46.2944 78.2923 46.1575 78.0091C46.0205 77.7259 45.9637 77.421 45.9912 77.1173C45.9912 76.9961 45.9912 76.8748 45.9912 76.7536C46.0116 75.9994 45.7604 75.257 45.269 74.6189C45.0596 74.3439 44.8682 74.0601 44.6587 73.7851C44.3276 73.3671 44.1191 72.892 44.0495 72.397C43.98 71.902 44.0513 71.4005 44.2579 70.9318C44.3193 70.7781 44.3807 70.6362 44.4529 70.4706C44.7382 69.8467 44.9982 69.217 45.2112 68.5724C45.5398 68.4364 45.7854 68.6167 46.031 68.735C47.1403 69.2641 48.3068 69.7085 49.5157 70.0626C52.8884 71.0797 56.1565 70.8165 59.3559 69.5747C60.136 69.279 60.9123 68.9597 61.6671 68.6108C61.8982 68.4926 62.1112 68.3388 62.4182 68.4541Z" fill="#2C2554"/>
<path d="M42.9938 59.17C42.6905 59.1966 42.4955 59.0192 42.2716 58.9069C40.7152 58.1263 39.1769 57.3191 37.6024 56.5622C35.4006 55.4806 33.0807 54.569 30.6727 53.8391C28.7039 53.2378 26.608 52.9654 24.5085 53.0378C24.7705 52.4125 24.9698 51.7707 25.1044 51.1189C25.2697 50.2354 25.8278 49.433 26.6716 48.8659L27.7549 48.1415C27.8272 48.1208 27.9138 48.0794 27.968 48.103C29.1633 48.6057 30.4597 48.9694 31.4563 49.7558C31.6152 49.8505 31.7669 49.951 31.933 50.0338C33.9408 51.0331 35.9052 52.0887 37.8408 53.1708C39.3516 54.0524 40.9387 54.8429 42.5894 55.5362C43.983 56.1101 45.4743 56.5088 47.013 56.7189C48.6772 56.9367 50.3792 56.859 52.0035 56.4912C53.6646 56.0927 55.254 55.516 56.7305 54.7763C57.8391 54.2441 58.9297 53.6853 60.031 53.1442C60.4535 52.9343 60.8869 52.7392 61.313 52.5381C61.4633 52.6966 61.5748 52.8773 61.6416 53.0703C62.0138 53.841 62.6734 54.496 63.5266 54.9419C64.0091 55.1865 64.4079 55.5273 64.6858 55.9324C64.8699 56.1896 65.0722 56.441 65.2672 56.6952C64.6569 56.8608 64.0466 57.0146 63.4616 57.192C62.4194 57.51 61.4109 57.8976 60.4463 58.351C60.2246 58.478 59.9812 58.5776 59.7241 58.6467C58.3134 58.9257 56.8754 59.1028 55.4269 59.1759C54.219 59.1945 53.0208 59.3569 51.8699 59.6579C50.2377 60.1339 48.6452 60.1516 47.0708 59.4805C46.1686 59.0828 45.1168 58.9772 44.1241 59.1848C43.7565 59.2867 43.3572 59.2815 42.9938 59.17Z" fill="#65A0A8"/>
<path d="M62.4181 68.4541C62.2015 68.5487 61.9776 68.6374 61.7645 68.7497C60.3954 69.3971 58.9556 69.9385 57.4637 70.3671C56.3165 70.6831 55.117 70.8536 53.9068 70.8727C52.7203 70.8816 51.5388 70.7471 50.4004 70.4735C48.7672 70.0746 47.2011 69.5104 45.7384 68.7941C45.5687 68.7113 45.3773 68.6492 45.2112 68.5783C45.2787 68.127 45.2258 67.6692 45.0562 67.2363C44.8867 66.8035 44.6044 66.4059 44.229 66.071C44.0051 65.8551 43.792 65.6363 43.5609 65.4264C42.8443 64.8052 42.4052 64.0039 42.3151 63.1527C42.297 62.9546 42.2465 62.7565 42.2068 62.5613C42.127 62.141 41.9 61.7486 41.5531 61.4319C41.5134 61.3225 41.5531 61.2722 41.694 61.3166C42.4162 61.6921 43.1637 62.0587 43.8931 62.4372C45.1754 63.1242 46.512 63.7405 47.8943 64.2821C49.1462 64.7629 50.4694 65.1078 51.8304 65.3081C53.6139 65.5614 55.4456 65.46 57.1712 65.0125C58.4946 64.6796 59.7706 64.2315 60.9773 63.676C62.6168 62.9309 64.2273 62.1622 65.8848 61.4171C66.3145 61.2219 66.7768 61.0712 67.2281 60.9085C67.2787 60.8878 67.3618 60.9292 67.4304 60.9411C67.387 61.0002 67.3401 61.0564 67.2931 61.1155L67.2679 61.1392C66.6593 62.0233 65.7695 62.7559 64.6931 63.2591C64.2231 63.481 63.7794 63.7384 63.3679 64.0279C62.9087 64.3384 62.553 64.739 62.3339 65.1924C62.1148 65.6458 62.0394 66.1372 62.1148 66.6209C62.1834 67.2211 62.3134 67.8361 62.4181 68.4541Z" fill="#6C792B"/>
<path d="M138.45 51.8432C138.212 51.7989 137.996 51.6957 137.833 51.5475C137.029 51.0652 136.056 50.8099 135.059 50.8202C134.551 50.8156 134.048 50.9019 133.584 51.0729C133.121 51.244 132.709 51.4958 132.376 51.8107C131.749 52.4175 131.381 53.1761 131.331 53.9701C131.28 54.7642 131.548 55.55 132.095 56.2073C132.41 56.5725 132.822 56.8749 133.299 57.0919C133.777 57.3089 134.308 57.4351 134.853 57.461C135.795 57.5393 136.742 57.3794 137.569 57.0027C137.671 56.9652 137.755 56.9025 137.811 56.8235C137.867 56.7444 137.891 56.6529 137.88 56.5621C137.862 56.2664 137.88 55.9708 137.88 55.6514C137.88 55.3321 137.836 55.3558 137.479 55.3558C136.883 55.3558 136.291 55.3558 135.698 55.3558C134.976 55.3558 135.023 55.3883 135.023 54.791C135.023 54.386 135.023 53.9809 135.023 53.5758C135.018 53.5454 135.022 53.5145 135.034 53.4855C135.047 53.4565 135.067 53.4301 135.093 53.4084C135.12 53.3867 135.152 53.3703 135.187 53.3604C135.223 53.3504 135.26 53.3473 135.298 53.3511H136.262C137.446 53.3511 138.634 53.3511 139.822 53.3511C140.017 53.3511 140.216 53.3511 140.415 53.3511C140.463 53.3501 140.511 53.3642 140.548 53.3904C140.584 53.4167 140.608 53.4533 140.613 53.493C140.625 53.5537 140.631 53.615 140.631 53.6764C140.631 54.9921 140.631 56.3078 140.631 57.6236C140.639 57.7235 140.615 57.8235 140.563 57.914C140.511 58.0045 140.431 58.0826 140.331 58.141C137.97 59.5868 135.363 60.0333 132.568 59.2498C130.04 58.5372 128.675 56.979 128.379 54.8147C128.205 53.7424 128.426 52.6521 129.014 51.6835C129.461 50.9227 130.123 50.2603 130.946 49.7516C131.769 49.2429 132.729 48.9027 133.745 48.7593C134.965 48.575 136.219 48.6154 137.417 48.8776C138.329 49.075 139.177 49.431 139.905 49.9213C140.155 50.081 140.165 50.1253 139.981 50.3087C139.468 50.835 138.948 51.3465 138.45 51.8432Z" fill="#494845"/>
<path d="M90.5089 74.9263C90.4967 74.7406 90.5561 74.5565 90.6786 74.4L96.4853 63.5104C96.5358 63.4188 96.59 63.3271 96.6333 63.2354C96.6629 63.1683 96.7193 63.1114 96.7933 63.0738C96.8674 63.0362 96.9548 63.0203 97.0414 63.0285C97.6336 63.0285 98.2258 63.0285 98.8181 63.0285C98.9039 63.0222 98.9898 63.0398 99.0618 63.0784C99.1339 63.117 99.188 63.1745 99.2153 63.2414C99.3597 63.5193 99.515 63.7972 99.6631 64.0752C101.49 67.499 103.316 70.9249 105.141 74.3527C105.264 74.5011 105.338 74.6734 105.354 74.8524C105.257 74.9529 105.127 74.9263 105.011 74.9263C104.469 74.9263 103.928 74.9263 103.383 74.9263C102.66 74.9263 102.787 75.0002 102.487 74.4207L101.566 72.6319C101.51 72.5419 101.464 72.4479 101.429 72.351C101.364 72.1233 101.169 72.079 100.927 72.0908H94.7881C94.7022 72.0818 94.6152 72.0983 94.5429 72.1373C94.4707 72.1764 94.418 72.2355 94.3944 72.3037C94.1742 72.7531 93.9358 73.1907 93.6939 73.6401C93.5068 74.0783 93.2647 74.4994 92.9717 74.8967L91.3431 74.9263C91.0758 74.9322 90.805 74.9263 90.5089 74.9263Z" fill="#2C2554"/>
<path d="M75.1112 54.1671V49.5546C75.1112 49.392 75.1112 49.2294 75.1112 49.0697C75.1076 49.0447 75.1106 49.0194 75.1199 48.9954C75.1291 48.9715 75.1445 48.9494 75.165 48.9307C75.1855 48.9119 75.2106 48.897 75.2387 48.8868C75.2668 48.8766 75.2972 48.8714 75.3279 48.8716C75.4507 48.8716 75.5734 48.8716 75.689 48.8716H80.4304C81.1477 48.8632 81.8614 48.9573 82.5393 49.1495C83.3421 49.372 84.0413 49.7923 84.541 50.3529C85.0408 50.9134 85.3166 51.5868 85.3307 52.2807C85.3612 52.664 85.3284 53.0489 85.2332 53.4249C85.1157 53.9237 84.859 54.3935 84.4831 54.7977C84.1073 55.2018 83.6225 55.5294 83.0665 55.7548C82.1575 56.1261 81.1536 56.3146 80.1379 56.3048C79.4951 56.3048 78.8523 56.3048 78.2096 56.3048C78.1727 56.3014 78.1353 56.3049 78.1004 56.3151C78.0654 56.3252 78.0337 56.3418 78.0076 56.3634C77.9815 56.385 77.9618 56.4112 77.9499 56.44C77.9379 56.4687 77.9341 56.4993 77.9387 56.5295C77.9387 57.2361 77.9387 57.9458 77.9387 58.6524C77.9387 59.5897 78.0868 59.4507 76.9637 59.4596C76.4221 59.4596 75.8804 59.4596 75.3351 59.4596C75.3041 59.4613 75.2729 59.4576 75.2437 59.4487C75.2146 59.4399 75.188 59.426 75.1658 59.4082C75.1436 59.3903 75.1264 59.3688 75.1151 59.345C75.1038 59.3213 75.0988 59.2958 75.1004 59.2704C75.1004 59.1107 75.1004 58.9481 75.1004 58.7855L75.1112 54.1671Z" fill="#494845"/>
<path d="M119.954 52.3221C120.18 52.2369 120.377 52.108 120.528 51.9466C121.68 51.0862 122.998 50.9797 124.388 51.438C125.508 51.8076 125.988 52.5941 126.161 53.5284C126.196 53.749 126.21 53.9713 126.205 54.1937C126.205 55.7726 126.205 57.3514 126.205 58.9244C126.205 59.0249 126.205 59.1255 126.205 59.2201C126.206 59.2505 126.199 59.2809 126.185 59.309C126.171 59.337 126.149 59.3622 126.121 59.3828C126.094 59.4033 126.061 59.4187 126.026 59.4279C125.99 59.4371 125.953 59.4398 125.916 59.4359H124.508C124.237 59.4359 123.962 59.4359 123.691 59.4359C123.421 59.4359 123.399 59.3738 123.388 59.1728C123.388 59.0309 123.388 58.8771 123.388 58.747C123.388 57.5643 123.388 56.3609 123.388 55.1664C123.395 54.9235 123.381 54.6805 123.348 54.4391C123.319 54.1214 123.144 53.8248 122.857 53.6091C122.571 53.3933 122.195 53.2747 121.806 53.2771C121.408 53.2408 121.007 53.329 120.684 53.5242C120.362 53.7193 120.141 54.007 120.066 54.3297C119.987 54.6058 119.953 54.889 119.965 55.1723V58.815C119.965 58.9569 119.965 59.1107 119.965 59.2378C119.967 59.2632 119.963 59.2888 119.953 59.3128C119.943 59.3369 119.926 59.3588 119.905 59.3773C119.883 59.3957 119.857 59.4102 119.828 59.4198C119.799 59.4294 119.768 59.4339 119.737 59.433H117.437C117.4 59.437 117.362 59.4342 117.327 59.4248C117.291 59.4155 117.258 59.3998 117.231 59.3788C117.204 59.3579 117.183 59.3323 117.169 59.3038C117.155 59.2753 117.149 59.2447 117.152 59.2142C117.152 59.0752 117.152 58.9185 117.152 58.7914V49.0283C117.152 48.8893 117.152 48.7326 117.152 48.6055C117.15 48.58 117.155 48.5546 117.166 48.5308C117.178 48.5071 117.195 48.4856 117.217 48.4677C117.239 48.4498 117.266 48.436 117.295 48.4271C117.324 48.4183 117.355 48.4146 117.386 48.4163C118.177 48.4163 118.968 48.4163 119.759 48.4163C119.783 48.4146 119.808 48.4172 119.831 48.4237C119.854 48.4302 119.875 48.4406 119.893 48.4543C119.911 48.4679 119.926 48.4844 119.936 48.5028C119.945 48.5212 119.95 48.5411 119.95 48.5611C119.95 48.7238 119.968 48.8864 119.968 49.046L119.954 52.3221Z" fill="#494845"/>
<path d="M150.222 71.9459V74.193C150.222 74.3349 150.222 74.4887 150.222 74.6188C150.222 74.8908 150.183 74.9144 149.818 74.9144C149.695 74.9144 149.572 74.9144 149.457 74.9144C149.233 74.9144 149.009 74.9144 148.789 74.9144C148.496 74.9144 148.146 75.012 147.922 74.8583C147.698 74.7045 147.85 74.4 147.814 74.1664C147.823 74.1274 147.823 74.0871 147.814 74.0481C147.778 73.9949 147.705 73.9565 147.637 74.0038C147.568 74.0511 147.413 74.1605 147.301 74.2403C146.825 74.566 146.273 74.8092 145.679 74.955C145.085 75.1009 144.461 75.1464 143.845 75.0889C143.251 75.0613 142.67 74.9324 142.141 74.7104C141.621 74.5116 141.182 74.1951 140.876 73.7985C140.569 73.4018 140.408 72.9416 140.411 72.4722C140.386 72.1484 140.422 71.8234 140.516 71.5083C140.629 71.1646 140.832 70.8452 141.11 70.5721C141.389 70.299 141.737 70.0787 142.13 69.9265C142.891 69.6291 143.721 69.4697 144.564 69.4593C145.43 69.4239 146.298 69.4947 147.138 69.6692C147.303 69.711 147.471 69.7455 147.64 69.7727C147.665 69.7763 147.69 69.7753 147.714 69.7699C147.738 69.7644 147.76 69.7547 147.778 69.7414C147.797 69.7281 147.812 69.7115 147.822 69.6929C147.832 69.6742 147.836 69.654 147.835 69.6337C147.891 69.1836 147.729 68.7336 147.385 68.3796C147.041 68.0256 146.542 67.7956 145.994 67.7385C144.988 67.608 143.959 67.6769 142.993 67.9396C142.69 68.0194 142.383 68.0933 142.079 68.1702C141.864 67.9506 141.723 67.6885 141.671 67.4103C141.31 66.476 141.086 66.6711 142.328 66.3104C143.758 65.8971 145.292 65.7852 146.788 65.9852C148.691 66.2276 150.06 67.2536 150.233 69.205C150.251 69.3883 150.233 69.5717 150.233 69.752L150.222 71.9459Z" fill="#ED6D1C"/>
<path d="M145.456 56.2132C145.508 56.5413 145.674 56.8504 145.933 57.104C146.193 57.3575 146.536 57.545 146.922 57.6442C147.359 57.7613 147.822 57.7955 148.278 57.7442C148.733 57.693 149.168 57.5577 149.551 57.3485C149.778 57.2332 149.948 56.9849 150.215 56.9967C150.482 57.0085 150.681 57.2717 150.908 57.4254C151.208 57.6324 151.493 57.8541 151.768 58.0552C151.739 58.187 151.653 58.3057 151.526 58.3893C150.812 59.0175 149.858 59.4275 148.821 59.5513C147.841 59.6904 146.835 59.6274 145.893 59.368C144.987 59.114 144.195 58.6452 143.616 58.0213C143.037 57.3973 142.698 56.6465 142.643 55.8643C142.543 55.0753 142.695 54.2787 143.083 53.5521C143.957 52.0413 145.398 51.2282 147.46 51.1868C147.905 51.1766 148.35 51.2123 148.785 51.2932C149.414 51.4089 150.003 51.6401 150.508 51.9695C151.012 52.2988 151.418 52.7177 151.696 53.1944C152.205 54.0547 152.417 55.0128 152.309 55.9648C152.313 55.9952 152.307 56.0258 152.294 56.0543C152.281 56.0828 152.26 56.1084 152.233 56.1294C152.206 56.1504 152.173 56.1662 152.138 56.1756C152.102 56.1849 152.065 56.1877 152.028 56.1836H151.432C149.702 56.1836 147.973 56.1836 146.243 56.1836C145.994 56.1954 145.752 56.2043 145.456 56.2132Z" fill="#494845"/>
<path d="M157.3 52.2867C157.452 52.203 157.59 52.1036 157.712 51.991C158.795 51.1454 160.062 51.0242 161.427 51.3849C161.806 51.4866 162.152 51.6557 162.441 51.8802C162.731 52.1046 162.955 52.3788 163.099 52.6829C163.312 53.0719 163.425 53.4926 163.432 53.9188C163.432 55.6574 163.432 57.3979 163.432 59.1404C163.435 59.1807 163.435 59.2212 163.432 59.2616C163.432 59.3739 163.352 59.4567 163.204 59.4567H160.832C160.68 59.4567 160.626 59.3621 160.622 59.2527C160.622 59.0901 160.622 58.9275 160.622 58.7649V55.0542C160.638 54.7539 160.589 54.4537 160.478 54.1672C160.383 53.9151 160.191 53.6949 159.931 53.5397C159.67 53.3846 159.355 53.3028 159.033 53.3068C158.698 53.2784 158.36 53.3375 158.069 53.4755C157.777 53.6136 157.546 53.8236 157.408 54.0755C157.263 54.3774 157.196 54.7004 157.21 55.0246C157.21 55.9353 157.21 56.846 157.21 57.7566C157.21 58.2415 157.21 58.7294 157.21 59.2143C157.21 59.4124 157.145 59.4656 156.899 59.4686H154.675C154.638 59.4722 154.6 59.4691 154.565 59.4593C154.53 59.4496 154.497 59.4334 154.471 59.4122C154.444 59.3909 154.424 59.365 154.411 59.3364C154.398 59.3078 154.393 59.2772 154.397 59.2468C154.397 59.1463 154.397 59.0457 154.397 58.9511V51.8816C154.397 51.3139 154.375 51.3346 155.025 51.3376H156.953C157.134 51.3376 157.217 51.4174 157.217 51.5623C157.217 51.7072 157.217 51.8077 157.217 51.9289C157.217 52.0502 157.141 52.1684 157.3 52.2867Z" fill="#494845"/>
<path d="M100.389 56.633C100.521 56.5383 100.611 56.4104 100.645 56.2693C101.209 54.8264 101.773 53.3845 102.339 51.9436C102.386 51.8283 102.426 51.7101 102.473 51.5947C102.592 51.3316 102.613 51.2991 102.949 51.2991C103.715 51.2991 104.48 51.2991 105.246 51.2991C105.313 51.3089 105.378 51.3248 105.441 51.3464C105.447 51.4915 105.406 51.6354 105.322 51.7633C104.118 54.4125 102.903 57.0597 101.678 59.705C101.525 60.0461 101.335 60.3755 101.111 60.6896C100.891 61.0202 100.572 61.2999 100.185 61.5025C99.7969 61.7052 99.3529 61.8242 98.8939 61.8486C97.9773 61.9227 97.0545 61.7714 96.2434 61.414C96.0195 61.3164 95.9906 61.2573 96.0881 61.0799C96.312 60.6748 96.5431 60.2727 96.7778 59.8706C96.897 59.6636 96.9475 59.6577 97.2437 59.7434C97.4233 59.8084 97.6093 59.8608 97.7998 59.9001C97.9934 59.9331 98.1926 59.9381 98.3884 59.9149C98.4987 59.9066 98.6048 59.8764 98.6977 59.8269C98.7905 59.7775 98.8673 59.7103 98.9213 59.6311C98.9753 59.5519 99.005 59.4632 99.0078 59.3725C99.0106 59.2819 98.9864 59.192 98.9373 59.1107C98.4558 58.0759 97.9635 57.041 97.4603 56.0062L95.5212 51.9407C95.467 51.8283 95.4092 51.716 95.3623 51.6036C95.2539 51.3582 95.2937 51.3079 95.5789 51.3079C96.3445 51.3079 97.11 51.3079 97.8792 51.3079C97.9272 51.2994 97.9769 51.299 98.0251 51.3067C98.0733 51.3144 98.1191 51.3301 98.1597 51.3527C98.2002 51.3754 98.2347 51.4047 98.261 51.4387C98.2873 51.4726 98.3048 51.5107 98.3125 51.5504C98.4245 51.8461 98.5653 52.1654 98.6917 52.4699C99.255 53.8507 99.8148 55.2285 100.389 56.633Z" fill="#494845"/>
<path d="M31.4419 49.7558C31.1022 49.642 30.7769 49.5013 30.4705 49.336C29.5569 48.9398 28.6649 48.5377 27.7405 48.1533C28.5566 47.287 29.3655 46.4177 30.1852 45.5573C30.8421 44.8449 31.6303 44.2205 32.5216 43.7064C32.9844 43.43 33.5492 43.2922 34.1213 43.3161C34.663 43.3427 35.2046 43.3457 35.7535 43.3398C36.9179 43.3352 38.0686 43.1339 39.1335 42.7484C39.7143 42.5201 40.334 42.3656 40.9716 42.2901C41.3896 42.2469 41.8141 42.2762 42.2174 42.3759C42.4985 42.4215 42.7559 42.5362 42.9553 42.7047C43.1547 42.8732 43.2865 43.0876 43.3333 43.3191C43.3333 43.5024 43.3333 43.6827 43.3333 43.8631C43.3403 43.9035 43.3371 43.9448 43.3237 43.9842C43.3104 44.0235 43.2872 44.0602 43.2556 44.0919C43.224 44.1236 43.1848 44.1496 43.1404 44.1682C43.0959 44.1868 43.0473 44.1977 42.9974 44.2002C42.4774 44.3066 41.9574 44.4249 41.4374 44.5372C40.7218 44.6805 40.0242 44.8785 39.3538 45.1286C38.8446 45.3296 38.3138 45.4952 37.8119 45.7199C36.6787 46.2111 35.5922 46.7715 34.5619 47.3964C33.6735 47.9197 32.9874 48.6116 32.1966 49.2147C31.9759 49.4221 31.722 49.6041 31.4419 49.7558Z" fill="#ED6D1C"/>
<path d="M137.331 72.2535C137.793 72.629 138.215 72.966 138.631 73.312C138.815 73.4628 138.808 73.4982 138.631 73.6638C137.704 74.5269 136.401 75.0578 135.001 75.1422C133.988 75.2319 132.963 75.0982 132.033 74.7549C131.177 74.4497 130.433 73.9687 129.871 73.3584C129.309 72.7482 128.949 72.0294 128.826 71.2718C128.692 70.6539 128.715 70.0199 128.893 69.4094C129.072 68.799 129.402 68.2252 129.863 67.7238C131.112 66.343 132.842 65.7724 134.918 65.867C136.243 65.9083 137.501 66.3533 138.446 67.1147C138.52 67.1694 138.589 67.2287 138.652 67.2921C138.686 67.3217 138.705 67.3608 138.705 67.4015C138.705 67.4422 138.686 67.4813 138.652 67.5109C138.353 67.78 138.053 68.049 137.746 68.3122C137.597 68.4779 137.411 68.6185 137.197 68.7261C136.966 68.5665 136.749 68.4009 136.514 68.253C136.161 68.0128 135.748 67.838 135.304 67.7405C134.861 67.643 134.396 67.6252 133.943 67.6883C133.402 67.76 132.894 67.9497 132.473 68.2373C132.052 68.525 131.733 68.9001 131.549 69.3234C131.193 70.0226 131.165 70.8049 131.47 71.5202C131.612 71.8995 131.857 72.2476 132.187 72.5384C132.517 72.8291 132.923 73.055 133.374 73.1992C133.826 73.3434 134.311 73.4021 134.794 73.3709C135.278 73.3398 135.746 73.2196 136.164 73.0193C136.584 72.7976 136.975 72.541 137.331 72.2535Z" fill="#6D792B"/>
<path d="M86.3669 58.3066C86.6956 57.8897 87.0133 57.4787 87.3419 57.0766C87.5189 56.8519 87.5622 56.8459 87.8728 57.0115C88.4517 57.3234 89.0882 57.557 89.7578 57.7034C90.1691 57.7762 90.5913 57.7991 91.0108 57.7714C91.1843 57.7629 91.3528 57.7203 91.5019 57.6472C91.5988 57.6107 91.6816 57.5533 91.7417 57.4813C91.8018 57.4092 91.8369 57.3251 91.8432 57.238C91.8495 57.1509 91.8268 57.064 91.7775 56.9866C91.7282 56.9092 91.6542 56.8443 91.5633 56.7986C91.3633 56.6792 91.138 56.591 90.8989 56.5384C90.4258 56.4172 89.9492 56.3078 89.4833 56.1748C89.0864 56.0654 88.698 55.936 88.3206 55.7874C86.1539 54.8827 86.5583 52.5351 88.0858 51.7486C88.6478 51.449 89.2917 51.2681 89.96 51.2223C91.3531 51.1358 92.7438 51.4132 93.9322 52.0147C94.0839 52.0856 94.1633 52.1803 94.0731 52.3103C93.7914 52.7391 93.5025 53.1619 93.21 53.5847C93.198 53.6078 93.1798 53.6283 93.1567 53.6448C93.1336 53.6612 93.1063 53.6732 93.0767 53.6798C93.0471 53.6863 93.0162 53.6873 92.9861 53.6826C92.956 53.6779 92.9276 53.6677 92.9031 53.6527C92.3833 53.4198 91.835 53.2325 91.2672 53.0939C90.9079 53.0179 90.536 52.99 90.1658 53.0111C89.9913 53.0173 89.8225 53.0634 89.6783 53.1441C89.6015 53.1779 89.5361 53.2266 89.4877 53.2859C89.4393 53.3453 89.4095 53.4134 89.4009 53.4845C89.3924 53.5555 89.4053 53.6271 89.4386 53.6931C89.4718 53.759 89.5244 53.8173 89.5917 53.8626C89.7372 53.9718 89.9046 54.0598 90.0864 54.1228C90.4728 54.2559 90.8664 54.3741 91.2636 54.4806C91.7841 54.6102 92.2912 54.7734 92.7803 54.9684C93.1569 55.1217 93.4969 55.329 93.7842 55.5805C94.1601 55.9096 94.377 56.3394 94.3944 56.7898C94.4084 57.032 94.3915 57.2748 94.3439 57.5142C94.2646 57.9275 94.0482 58.3151 93.7184 58.6347C93.3886 58.9543 92.9579 59.1937 92.4733 59.3266C91.6806 59.5641 90.8307 59.6452 89.9925 59.5632C88.7299 59.4642 87.5251 59.0816 86.5114 58.4574C86.4644 58.4485 86.4428 58.4071 86.3669 58.3066Z" fill="#494845"/>
<path d="M113.028 64.4181C112.728 64.3737 112.41 64.3412 112.103 64.285C111.837 64.2406 111.561 64.2466 111.298 64.3027C111.028 64.3393 110.78 64.4493 110.596 64.6151C110.411 64.7808 110.3 64.9926 110.28 65.2164C110.262 65.3371 110.254 65.4585 110.255 65.58C110.255 66.1093 110.255 66.1211 110.905 66.1241C111.5 66.1241 112.093 66.1241 112.685 66.1241C113.046 66.1241 113.1 66.1655 113.107 66.4878C113.115 66.81 113.107 67.1353 113.107 67.4576C113.107 67.6971 113.042 67.7532 112.746 67.7532C112.201 67.7532 111.663 67.7532 111.114 67.7532C110.919 67.7532 110.72 67.7532 110.522 67.7532C110.46 67.7524 110.4 67.7714 110.355 67.8062C110.309 67.841 110.283 67.8888 110.28 67.9395C110.262 68.1021 110.28 68.2647 110.28 68.4244C110.28 70.3285 110.28 72.2307 110.28 74.1309C110.28 74.2728 110.28 74.4265 110.28 74.5566C110.28 74.8523 110.222 74.8878 109.919 74.8907C109.323 74.8907 108.731 74.8907 108.138 74.8907C107.857 74.8907 107.806 74.8346 107.777 74.5951C107.777 74.4354 107.777 74.2728 107.777 74.1102V68.244C107.777 67.7769 107.777 67.771 107.192 67.768C106.376 67.768 106.416 67.7858 106.416 67.1441C106.416 66.8485 106.416 66.5794 106.416 66.2956C106.414 66.265 106.42 66.2343 106.433 66.2057C106.447 66.1771 106.467 66.1512 106.494 66.1296C106.521 66.1081 106.553 66.0914 106.588 66.0808C106.623 66.0701 106.66 66.0658 106.698 66.0679C106.745 66.0679 106.795 66.0679 106.846 66.0679C107.131 66.0413 107.485 66.1684 107.687 65.9703C107.889 65.7722 107.756 65.5032 107.763 65.2637C107.779 64.8796 107.862 64.4993 108.008 64.1342C108.126 63.8015 108.342 63.4975 108.636 63.249C108.931 63.0005 109.296 62.8151 109.698 62.7091C110.721 62.4518 111.814 62.4518 112.837 62.7091C112.911 62.7176 112.979 62.7476 113.029 62.7937C113.078 62.8398 113.106 62.8989 113.107 62.9604C113.107 63.3241 113.107 63.6878 113.107 64.0544C113.129 64.1794 113.101 64.3069 113.028 64.4181Z" fill="#65A0A8"/>
<path d="M24.5916 55.82C24.6488 55.7807 24.7164 55.7527 24.7891 55.7384C24.8618 55.724 24.9376 55.7236 25.0104 55.7372C25.7327 55.8644 26.4802 55.82 27.2132 55.9147C28.5002 56.0908 29.763 56.37 30.9832 56.7484C33.2894 57.4605 35.5222 58.3227 37.6602 59.3267C38.7796 59.8382 39.8918 60.3527 40.9607 60.9322C40.9607 61.2013 40.6899 61.1126 40.5238 61.1096C40.0636 61.1402 39.6006 61.1263 39.1443 61.0682C38.7938 61.0652 38.456 60.9604 38.191 60.7725C37.9671 60.6483 37.7432 60.5212 37.5121 60.4089C37.2156 60.2614 36.8806 60.1738 36.5347 60.1533C36.1887 60.1327 35.8418 60.1798 35.5224 60.2906C35.3368 60.3434 35.1568 60.4087 34.9843 60.4857C34.0425 60.9008 32.9568 61.0426 31.9041 60.8878C31.2179 60.8139 30.5318 60.7489 29.8493 60.675C29.6074 60.6483 29.3654 60.6099 29.1271 60.5685C28.7974 60.5196 28.4867 60.4069 28.221 60.2398C27.9553 60.0726 27.7422 59.8559 27.5996 59.6076C27.1943 58.9622 26.6527 58.3806 25.9999 57.8897C25.8952 57.8069 25.7941 57.7153 25.6929 57.6295C25.0942 57.1411 24.7073 56.5055 24.5916 55.82Z" fill="#6D792B"/>
<path d="M111.392 51.1868C112.049 51.162 112.705 51.247 113.32 51.4366C113.935 51.6262 114.497 51.9165 114.971 52.2897C115.047 52.3411 115.113 52.4019 115.166 52.4701C115.182 52.5254 115.182 52.5832 115.166 52.6386C115.158 52.6581 115.145 52.6756 115.126 52.6889L113.71 53.9336C113.691 53.9529 113.666 53.9684 113.638 53.979C113.611 53.9896 113.58 53.9951 113.55 53.9951C113.519 53.9951 113.489 53.9896 113.461 53.979C113.433 53.9684 113.409 53.9529 113.389 53.9336C113.237 53.8272 113.096 53.7148 112.938 53.6202C112.607 53.3944 112.209 53.2446 111.785 53.1862C111.361 53.1278 110.925 53.1628 110.522 53.2876C110.12 53.4125 109.765 53.6228 109.495 53.8968C109.225 54.1709 109.048 54.4989 108.983 54.8473C108.889 55.2059 108.889 55.5767 108.983 55.9353C109.417 57.5526 111.316 57.9636 112.71 57.3398C112.986 57.2049 113.248 57.0516 113.494 56.8815C113.519 56.8595 113.549 56.8425 113.584 56.8318C113.618 56.821 113.655 56.8167 113.691 56.8193C113.728 56.8219 113.763 56.8312 113.794 56.8466C113.826 56.862 113.853 56.883 113.873 56.9081C114.234 57.2038 114.595 57.4994 114.956 57.8128C115.317 58.1263 115.317 58.1351 114.956 58.4278C114.058 59.172 112.839 59.5968 111.562 59.6105C110.745 59.6445 109.929 59.5326 109.171 59.2823C108.128 58.9184 107.265 58.2779 106.72 57.4639C106.175 56.65 105.98 55.7096 106.167 54.794C106.296 53.9327 106.757 53.1274 107.482 52.4944C108.207 51.8614 109.159 51.4335 110.2 51.2726C110.319 51.2486 110.44 51.2318 110.561 51.2223C110.861 51.2105 111.121 51.2105 111.392 51.1868Z" fill="#494845"/>
<path d="M117.509 67.7681C117.668 67.5671 117.805 67.3867 117.953 67.2093C118.269 66.8074 118.697 66.4732 119.203 66.235C119.709 65.9968 120.277 65.8615 120.86 65.8403C121.189 65.8196 121.272 65.8699 121.272 66.136C121.272 66.683 121.272 67.227 121.272 67.774C121.272 67.9721 121.236 67.9958 120.961 68.0194C120.839 68.0194 120.712 68.0194 120.6 68.046C119.842 68.1073 119.131 68.3757 118.582 68.808C118.034 69.2403 117.678 69.8114 117.574 70.4292C117.472 70.8458 117.423 71.2698 117.426 71.6946C117.426 72.5816 117.426 73.4687 117.426 74.3557C117.426 74.4946 117.426 74.6366 117.426 74.7785C117.426 74.7987 117.421 74.8186 117.411 74.8372C117.402 74.8557 117.387 74.8724 117.369 74.8863C117.351 74.9001 117.33 74.9108 117.307 74.9177C117.284 74.9246 117.259 74.9275 117.235 74.9263C116.541 74.9263 115.852 74.9263 115.162 74.9263C115.131 74.9281 115.1 74.9244 115.071 74.9155C115.042 74.9066 115.016 74.8927 114.994 74.8748C114.972 74.8568 114.955 74.8353 114.944 74.8115C114.933 74.7878 114.929 74.7624 114.931 74.7371C114.931 74.6169 114.931 74.4956 114.931 74.3734V66.6002C114.931 66.479 114.931 66.3578 114.931 66.2365C114.928 66.2114 114.931 66.186 114.941 66.1621C114.951 66.1381 114.966 66.1161 114.987 66.0974C115.008 66.0787 115.033 66.0638 115.061 66.0537C115.09 66.0435 115.12 66.0383 115.151 66.0384C115.841 66.0384 116.534 66.0384 117.224 66.0384C117.375 66.0384 117.437 66.1242 117.44 66.2365C117.44 66.6002 117.44 66.9639 117.44 67.3276C117.396 67.4763 117.42 67.6334 117.509 67.7681Z" fill="#C23D18"/>
<path d="M126.057 70.4943V74.199C126.057 74.3616 126.057 74.5243 126.057 74.6839C126.06 74.7141 126.055 74.7445 126.043 74.773C126.03 74.8016 126.011 74.8276 125.985 74.8494C125.959 74.8713 125.928 74.8884 125.894 74.8996C125.86 74.9108 125.823 74.9159 125.786 74.9145H125.562C125.067 74.9145 124.572 74.9145 124.078 74.9145C123.583 74.9145 123.561 74.8968 123.551 74.4563C123.551 74.4178 123.551 74.3764 123.551 74.335C123.551 71.7726 123.551 69.2022 123.551 66.6239C123.551 66.003 123.551 66.0178 124.273 66.0326C124.692 66.0326 125.114 66.0326 125.533 66.0326C126.049 66.0326 126.049 66.0326 126.06 66.4879V70.4972L126.057 70.4943Z" fill="#ECB03B"/>
<path d="M69.2502 71.4668C69.2918 72.1377 69.0551 72.8004 68.5785 73.3473C68.3101 73.6623 68.0687 73.9923 67.8563 74.3348C67.6895 74.5825 67.5747 74.8513 67.5168 75.1302C67.4302 75.5293 67.3291 75.9226 67.2135 76.3128C67.1351 76.6096 66.984 76.8902 66.7693 77.1378C66.6462 77.3037 66.4624 77.4336 66.2439 77.509C66.0254 77.5844 65.7834 77.6014 65.5524 77.5576C65.3101 77.5112 65.0911 77.4049 64.9251 77.2531C64.7591 77.1013 64.6541 76.9113 64.6243 76.709C64.6211 76.6894 64.6211 76.6695 64.6243 76.6499C64.6551 76.2274 64.6333 75.8034 64.5593 75.3844C64.5718 75.1623 64.6566 74.9469 64.8049 74.7606C64.9385 74.5418 65.0685 74.3259 65.1913 74.1071C65.2491 74.0063 65.2748 73.8951 65.266 73.784C65.2571 73.6728 65.214 73.5653 65.1407 73.4714C65.0044 73.2795 64.893 73.0763 64.8085 72.8653C64.7434 72.6791 64.7456 72.4814 64.8148 72.2962C64.884 72.111 65.0173 71.9461 65.1985 71.8216C65.3399 71.7055 65.5293 71.6369 65.7293 71.6294H66.0904C66.8127 71.5969 67.0004 71.4727 67.2207 70.9405C67.2677 70.8252 67.3074 70.7069 67.3615 70.5946C67.4023 70.5002 67.4581 70.4107 67.5277 70.3285C68.0079 69.7785 68.6507 69.817 69.0191 70.4172C69.1992 70.7464 69.2786 71.1067 69.2502 71.4668Z" fill="#5F230F"/>
<path d="M124.677 64.6664C124.367 64.631 123.955 64.7551 123.547 64.5896C123.477 64.2726 123.461 63.9492 123.5 63.6286C123.5 63.4069 123.5 63.1851 123.5 62.9634C123.497 62.9332 123.502 62.9028 123.514 62.8743C123.527 62.8458 123.547 62.8199 123.573 62.7984C123.599 62.777 123.631 62.7605 123.666 62.7502C123.7 62.7399 123.738 62.7359 123.774 62.7387C124.118 62.7387 124.464 62.718 124.807 62.7387C125.241 62.7594 125.685 62.644 126.104 62.8214C126.18 63.1557 126.201 63.4967 126.169 63.8356C126.169 64.0367 126.169 64.2377 126.169 64.4269C126.171 64.4574 126.166 64.488 126.153 64.5166C126.14 64.5452 126.12 64.5712 126.093 64.5928C126.067 64.6144 126.035 64.6311 126 64.6418C125.965 64.6524 125.928 64.6568 125.891 64.6546C125.511 64.6723 125.143 64.6664 124.677 64.6664Z" fill="#ECB03D"/>
<path d="M67.2678 61.1184L67.2642 61.0947H67.293L67.3039 61.1213L67.2678 61.1184Z" fill="#ECB03B"/>
<path d="M42.9939 59.1699L44.4383 58.9422C45.218 58.8228 46.0236 58.8991 46.7495 59.161C47.0022 59.2438 47.2478 59.3355 47.4933 59.4271C48.5739 59.8463 49.8044 59.9273 50.9528 59.6548C51.4258 59.5454 51.8953 59.4271 52.3647 59.3029C53.0632 59.1129 53.7954 59.019 54.5314 59.025C55.1722 59.0343 55.8125 58.9887 56.4417 58.889C57.2588 58.7399 58.09 58.6479 58.9261 58.614C59.1717 58.614 59.4172 58.614 59.6664 58.614C59.1405 58.9487 58.5713 59.2353 57.9692 59.4685C57.0993 59.8919 56.1984 60.2711 55.2717 60.6039C54.2383 60.9861 53.1441 61.2469 52.0217 61.3785C51.0611 61.4744 50.089 61.4615 49.1328 61.3401C47.098 61.0411 45.1569 60.4117 43.4236 59.4892C43.2575 59.4064 43.0661 59.3414 42.9939 59.1699Z" fill="#C13D18"/>
<path d="M97.9153 65.6392C98.7422 67.1441 99.515 68.6432 100.309 70.1481C98.7236 70.2368 97.1322 70.2368 95.5464 70.1481C96.2434 68.6136 97.034 67.1088 97.9153 65.6392Z" fill="white"/>
<path d="M77.9423 52.535V51.2104C77.9423 51.0655 78.0145 50.9739 78.1987 50.9739C78.9643 50.9739 79.7298 50.9739 80.4954 50.9739C80.6432 50.9841 80.7895 51.0058 80.9323 51.0389C82.2395 51.2814 82.6331 52.1536 82.3298 53.085C82.2339 53.3488 82.0498 53.5855 81.7985 53.7683C81.5471 53.9512 81.2383 54.0729 80.907 54.1198C80.7627 54.1486 80.615 54.1645 80.4665 54.1671C79.7262 54.1671 78.9859 54.1908 78.2456 54.1908C78.0109 54.1908 77.9459 54.1287 77.9459 53.9276C77.9387 53.4664 77.9423 52.9992 77.9423 52.535Z" fill="white"/>
<path d="M145.069 73.6105C144.602 73.6376 144.135 73.5695 143.708 73.4124C143.446 73.3175 143.223 73.1632 143.065 72.9678C142.907 72.7723 142.82 72.5439 142.816 72.3095C142.795 72.0774 142.851 71.845 142.978 71.6368C143.105 71.4286 143.299 71.2524 143.538 71.1268C143.872 70.9516 144.252 70.8432 144.647 70.8104C145.606 70.7164 146.579 70.792 147.499 71.0322C147.777 71.1061 147.81 71.1475 147.828 71.3752C147.918 72.5579 147.106 73.3828 145.661 73.572C145.465 73.5934 145.267 73.6062 145.069 73.6105Z" fill="white"/>
<path d="M145.477 54.7141C145.473 54.3097 145.651 53.9181 145.976 53.6139C146.302 53.3096 146.753 53.1139 147.243 53.0639C147.733 53.0139 148.229 53.1131 148.636 53.3427C149.042 53.5723 149.332 53.9162 149.449 54.3091C149.597 54.723 149.514 54.7408 149.088 54.7408H145.755C145.676 54.7378 145.604 54.726 145.477 54.7141Z" fill="#FEFEFE"/>
</svg>
